<?xml version="1.0" encoding="UTF-8"?>
<svg version="1.1" xmlns="http://www.w3.org/2000/svg" width="174" height="146">
<path d="M0 0 C2.41882756 1.68769086 4.18288023 3.6633973 6.12011719 5.88623047 C7.291875 7.22234375 7.291875 7.22234375 8.48730469 8.58544922 C9.63585937 9.90996094 9.63585937 9.90996094 10.80761719 11.26123047 C11.49082031 12.03080078 12.17402344 12.80037109 12.87792969 13.59326172 C15.38314828 16.41818393 17.70922043 19.11363533 19.80761719 22.26123047 C19.43261719 24.44873047 19.43261719 24.44873047 18.80761719 26.26123047 C17.5027999 25.07639638 16.19840633 23.89109277 14.89599609 22.70361328 C13.79191568 21.69717264 12.68610741 20.69262434 11.57861328 19.68994141 C7.98553624 16.41542584 4.63269532 13.03646015 1.50292969 9.30810547 C-1.2123251 7.63140435 -3.14043607 8.55012291 -6.19238281 9.26123047 C-8.8674288 10.30813481 -11.42878511 11.55527229 -14.00488281 12.82373047 C-15.10280151 13.35075562 -15.10280151 13.35075562 -16.22290039 13.88842773 C-18.54960726 15.00551495 -20.87148877 16.13212082 -23.19238281 17.26123047 C-26.25076645 18.74912712 -29.31373497 20.226912 -32.37988281 21.69873047 C-33.4207605 22.21125366 -33.4207605 22.21125366 -34.48266602 22.73413086 C-38.39130669 24.60911575 -41.82759278 25.77927076 -46.19238281 26.26123047 C-46.19238281 24.61123047 -46.19238281 22.96123047 -46.19238281 21.26123047 C-35.47666903 15.48828335 -24.66827179 9.90161717 -13.75488281 4.51123047 C-12.67150635 3.96176758 -11.58812988 3.41230469 -10.47192383 2.84619141 C-9.45283936 2.34893555 -8.43375488 1.85167969 -7.38378906 1.33935547 C-6.47830322 0.88979492 -5.57281738 0.44023437 -4.63989258 -0.02294922 C-2.19238281 -0.73876953 -2.19238281 -0.73876953 0 0 Z " fill="#C69030" transform="translate(79.1923828125,16.73876953125)"/>
<path d="M0 0 C2.0546875 1.6015625 2.0546875 1.6015625 3.875 3.625 C7.19497443 7.17481882 10.64609937 10.39406918 14.3359375 13.5546875 C15.60166464 14.65402798 16.8145434 15.8145434 18 17 C18 17.99 18 18.98 18 20 C14.35063073 19.01514249 12.52679415 17.61449146 10.20703125 14.7578125 C6.35839129 10.4240057 2.83815237 7.12447447 -3 6 C-13.54745434 7.52394196 -23.53501851 12.08152128 -33.22460938 16.36743164 C-43.79334338 21 -43.79334338 21 -48 21 C-48 19.35 -48 17.7 -48 16 C-46.20706937 15.26813576 -44.41408971 14.53639165 -42.62109375 13.8046875 C-41.47858154 13.33836914 -40.33606934 12.87205078 -39.15893555 12.39160156 C-36.67321788 11.37780899 -34.18633739 10.36694389 -31.69848633 9.35839844 C-23.86565078 6.18295322 -23.86565078 6.18295322 -16.078125 2.8984375 C-15.06407593 2.46942139 -15.06407593 2.46942139 -14.02954102 2.03173828 C-12.32154103 1.30688527 -10.61947708 0.568088 -8.91796875 -0.171875 C-5.44803198 -1.15664956 -3.4429778 -1.04561022 0 0 Z " fill="#CD9631" transform="translate(81,47)"/>
<path d="M0 0 C1.87524414 1.55053711 1.87524414 1.55053711 3.78515625 3.52734375 C4.82833008 4.59178711 4.82833008 4.59178711 5.89257812 5.67773438 C6.60865234 6.42345703 7.32472656 7.16917969 8.0625 7.9375 C9.48868019 9.40709122 10.91697991 10.87462926 12.34765625 12.33984375 C12.97679932 12.99331787 13.60594238 13.64679199 14.25415039 14.32006836 C16.09702663 16.19267322 16.09702663 16.19267322 19 18 C19 19.32 19 20.64 19 22 C14.81647159 20.23245925 11.51070247 17.379141 8 14.5625 C6.77111733 13.58427854 5.541958 12.60640451 4.3125 11.62890625 C3.77238281 11.19650635 3.23226562 10.76410645 2.67578125 10.31860352 C1.84626953 9.66589478 1.84626953 9.66589478 1 9 C0.3936673 8.45264191 -0.21266541 7.90528381 -0.83737183 7.34133911 C-2.87467288 5.7591439 -2.87467288 5.7591439 -5.06204224 6.28462219 C-5.79325287 6.5932872 -6.5244635 6.90195221 -7.27783203 7.2199707 C-8.11194611 7.56055008 -8.94606018 7.90112946 -9.80545044 8.25202942 C-10.69722992 8.63936752 -11.5890094 9.02670563 -12.5078125 9.42578125 C-13.42964325 9.80735886 -14.351474 10.18893646 -15.30123901 10.58207703 C-18.25059296 11.80712578 -21.18770933 13.05883689 -24.125 14.3125 C-27.0715326 15.54977508 -30.02028565 16.78156194 -32.97018433 18.01078796 C-34.80675422 18.77831916 -36.64091986 19.55163277 -38.47244263 20.33113098 C-39.30025238 20.68116684 -40.12806213 21.0312027 -40.98095703 21.3918457 C-41.71057648 21.70289749 -42.44019592 22.01394928 -43.19192505 22.33442688 C-45 23 -45 23 -47 23 C-47 21.35 -47 19.7 -47 18 C-38.96244003 13.7928974 -30.70305232 10.14966441 -22.36621094 6.58642578 C-20.85909683 5.93990995 -19.3542348 5.28812131 -17.8515625 4.63134766 C-15.65827898 3.67273477 -13.45904947 2.72924276 -11.2578125 1.7890625 C-10.58799347 1.49335358 -9.91817444 1.19764465 -9.22805786 0.89297485 C-3.24005905 -1.62601895 -3.24005905 -1.62601895 0 0 Z " fill="#E1A836" transform="translate(80,33)"/>
<path d="M0 0 C2.32492646 1.66149313 4.34089341 3.27725844 6.4375 5.1875 C7.54021243 6.16032875 8.64307627 7.13298589 9.74609375 8.10546875 C10.28089355 8.58806152 10.81569336 9.0706543 11.36669922 9.56787109 C13.00300851 11.00263796 14.69687395 12.33462366 16.41015625 13.67578125 C17.26480469 14.44277344 18.11945313 15.20976563 19 16 C19 16.99 19 17.98 19 19 C15.60610258 17.97082831 13.34510793 16.54041712 10.75878906 14.1940918 C3.99182225 8.18936952 3.99182225 8.18936952 -4.50317383 5.94244385 C-11.05259317 6.89910583 -17.12883334 9.38656724 -23.25 11.8125 C-25.11597891 12.49582764 -26.98447434 13.17232403 -28.85546875 13.84179688 C-31.48306873 14.78226015 -34.10251239 15.73069043 -36.70611572 16.73579407 C-37.47502136 17.03156845 -38.243927 17.32734283 -39.03613281 17.63208008 C-40.04296112 18.02826286 -40.04296112 18.02826286 -41.07012939 18.43244934 C-43 19 -43 19 -47 19 C-47 17.68 -47 16.36 -47 15 C-40.89364705 12.79597098 -34.78596523 10.59573204 -28.67578125 8.40234375 C-24.68883534 6.97071146 -20.70633723 5.52849982 -16.73046875 4.06640625 C-15.23700802 3.52335814 -13.74352069 2.98038319 -12.25 2.4375 C-11.57912354 2.18661621 -10.90824707 1.93573242 -10.21704102 1.67724609 C-3.61515314 -0.70342693 -3.61515314 -0.70342693 0 0 Z " fill="#D39B33" transform="translate(80,61)"/>
<path d="M0 0 C3.96 0 7.92 0 12 0 C11.67 0.66 11.34 1.32 11 2 C10.34 2 9.68 2 9 2 C9.33 3.98 9.66 5.96 10 8 C11.65 6.35 13.3 4.7 15 3 C14.34 2.67 13.68 2.34 13 2 C13 1.34 13 0.68 13 0 C16.3 0 19.6 0 23 0 C23 0.66 23 1.32 23 2 C22.05125 2.45375 21.1025 2.9075 20.125 3.375 C16.99686321 4.80238254 16.99686321 4.80238254 15 7 C15.32816824 10.3933992 16.78728364 12.18304201 19.0625 14.625 C22 17.79058824 22 17.79058824 22 20 C22.66 20 23.32 20 24 20 C24 20.66 24 21.32 24 22 C20.37 22 16.74 22 13 22 C13 20.68 13 19.36 13 18 C11.58022091 15.77256213 11.58022091 15.77256213 10 14 C9.67 15.98 9.34 17.96 9 20 C9.99 20 10.98 20 12 20 C12 20.66 12 21.32 12 22 C8.04 22 4.08 22 0 22 C0 21.34 0 20.68 0 20 C0.99 20 1.98 20 3 20 C3 14.06 3 8.12 3 2 C2.01 2 1.02 2 0 2 C0 1.34 0 0.68 0 0 Z " fill="#E2BC65" transform="translate(90,107)"/>
<path d="M0 0 C0.70229736 0.39767578 1.40459473 0.79535156 2.12817383 1.20507812 C4.36108834 2.62952811 6.59057556 4.05844969 8.8125 5.5 C9.60076172 5.99886719 10.38902344 6.49773437 11.20117188 7.01171875 C11.94560547 7.49253906 12.69003906 7.97335938 13.45703125 8.46875 C14.13741455 8.90638672 14.81779785 9.34402344 15.51879883 9.79492188 C16.25199341 10.39143555 16.25199341 10.39143555 17 11 C17 11.66 17 12.32 17 13 C11.58260153 12.3577845 7.34121081 9.50931418 2.79101562 6.70703125 C2.16259766 6.34738281 1.53417969 5.98773438 0.88671875 5.6171875 C0.33201904 5.28315918 -0.22268066 4.94913086 -0.79418945 4.60498047 C-6.65780629 2.99678539 -13.59750735 5.52863403 -19.33203125 7.06640625 C-20.09045822 7.26475571 -20.84888519 7.46310516 -21.6302948 7.66746521 C-24.02565804 8.29433526 -26.41920566 8.92778086 -28.8125 9.5625 C-31.22377463 10.20026205 -33.63541024 10.83648195 -36.04826355 11.46824646 C-37.54279878 11.85969209 -39.03642561 12.25462667 -40.52900696 12.65345764 C-43.44212882 13.41753059 -45.9736881 14 -49 14 C-49 12.68 -49 11.36 -49 10 C-42.83138363 8.23234611 -36.6561957 6.48930553 -30.47583008 4.76318359 C-28.37430153 4.17312719 -26.27434012 3.57745935 -24.17602539 2.97607422 C-21.15906173 2.11245321 -18.13703209 1.26918992 -15.11328125 0.4296875 C-13.70832146 0.02047562 -13.70832146 0.02047562 -12.27497864 -0.39700317 C-4.22188241 -2.59562569 -4.22188241 -2.59562569 0 0 Z " fill="#E5AC37" transform="translate(82,79)"/>
<path d="M0 0 C1 1 1 1 1.0625 4.5625 C1.041875 5.696875 1.02125 6.83125 1 8 C-2.33537489 6.88820837 -3.63707344 5.52588702 -6 3 C-6.99 3.33 -7.98 3.66 -9 4 C-7.82648048 7.52055855 -7.09677617 7.82223387 -4 9.625 C-0.04347826 11.95652174 -0.04347826 11.95652174 1 13 C1.46607534 19.29201705 1.46607534 19.29201705 -0.12890625 21.71484375 C-2.83750319 23.57523706 -4.94259036 23.2921745 -8.1875 23.1875 C-9.27417969 23.16042969 -10.36085938 23.13335937 -11.48046875 23.10546875 C-12.72763672 23.05326172 -12.72763672 23.05326172 -14 23 C-14 20.36 -14 17.72 -14 15 C-12.29159719 16.63412443 -11.06546953 17.86906094 -10 20 C-8.07361988 20.75243555 -8.07361988 20.75243555 -6 21 C-5.34 20.67 -4.68 20.34 -4 20 C-4 18.68 -4 17.36 -4 16 C-5.36125 15.62875 -5.36125 15.62875 -6.75 15.25 C-10.20817171 13.91993396 -11.83928199 12.9917634 -14 10 C-14.4669578 6.73129539 -14.65475278 4.90418241 -12.6875 2.1875 C-8.67489233 -0.63618688 -4.68713724 -0.15119798 0 0 Z " fill="#C59441" transform="translate(14,106)"/>
<path d="M0 0 C2.56887717 1.70934738 4.35141014 3.67360127 6.37890625 6 C7.55066406 7.33611328 7.55066406 7.33611328 8.74609375 8.69921875 C9.51179688 9.58222656 10.2775 10.46523438 11.06640625 11.375 C11.74960938 12.14457031 12.4328125 12.91414063 13.13671875 13.70703125 C15.64193734 16.53195347 17.96800949 19.22740486 20.06640625 22.375 C19.69140625 24.5625 19.69140625 24.5625 19.06640625 26.375 C17.7616781 25.19024686 16.45740632 24.00498776 15.15527344 22.81738281 C14.05015413 21.81029301 12.94270903 20.80574974 11.83300781 19.80371094 C8.79759739 17.04311134 6.01294527 14.2238199 3.31640625 11.125 C1.40060937 9.13351732 0.64268084 8.42720249 -2.1328125 8.17578125 C-4.61768225 8.41321946 -4.61768225 8.41321946 -7.93359375 9.375 C-7.93359375 7.065 -7.93359375 4.755 -7.93359375 2.375 C-2.53027883 -0.81786791 -2.53027883 -0.81786791 0 0 Z " fill="#FCDF9E" transform="translate(78.93359375,16.625)"/>
<path d="M0 0 C1 1 1 1 1.09765625 3.72265625 C1.08605469 4.82480469 1.07445313 5.92695312 1.0625 7.0625 C1.05347656 8.16722656 1.04445313 9.27195312 1.03515625 10.41015625 C1.02355469 11.26480469 1.01195313 12.11945313 1 13 C1.66 13 2.32 13 3 13 C3 13.66 3 14.32 3 15 C-2.94 15 -8.88 15 -15 15 C-14.67 14.34 -14.34 13.68 -14 13 C-13.77141886 10.9625237 -13.58975722 8.91959697 -13.4375 6.875 C-13.35371094 5.77929688 -13.26992188 4.68359375 -13.18359375 3.5546875 C-13.12300781 2.71164063 -13.06242187 1.86859375 -13 1 C-13.66 0.67 -14.32 0.34 -15 0 C-12.98177083 0.03255208 -10.96354167 0.06510417 -8.9453125 0.09765625 C-1.14609572 -0.2938707 -1.14609572 -0.2938707 0 0 Z M-6 2 C-8.32528287 4.32528287 -8.29511025 4.84665898 -8.3125 8 C-8.32925781 8.70125 -8.34601562 9.4025 -8.36328125 10.125 C-8.24339844 10.74375 -8.12351562 11.3625 -8 12 C-6.515 12.99 -6.515 12.99 -5 14 C-3.74050951 12.96593327 -3.74050951 12.96593327 -3.90234375 10.71484375 C-3.91394531 9.79832031 -3.92554688 8.88179687 -3.9375 7.9375 C-3.95103516 6.55884766 -3.95103516 6.55884766 -3.96484375 5.15234375 C-3.97644531 4.44207031 -3.98804688 3.73179688 -4 3 C-4.66 2.67 -5.32 2.34 -6 2 Z " fill="#B37F33" transform="translate(43,114)"/>
<path d="M0 0 C2.04516683 1.91377343 3.89385521 3.79475373 5.75 5.875 C6.25660156 6.41769531 6.76320312 6.96039063 7.28515625 7.51953125 C11 11.61487113 11 11.61487113 11 15 C6.63708241 13.16757461 4.23912738 10.10028691 1.1953125 6.58203125 C-0.90767397 4.74552753 -0.90767397 4.74552753 -3.65234375 4.9765625 C-8.24232053 6.37979927 -12.40104303 8.42091132 -16.6875 10.5625 C-18.376283 11.40243056 -20.06759117 12.23730847 -21.76171875 13.06640625 C-22.50381592 13.43709229 -23.24591309 13.80777832 -24.01049805 14.18969727 C-26 15 -26 15 -29 15 C-29 13.68 -29 12.36 -29 11 C-24.92602145 8.95989061 -20.83948152 6.94632874 -16.75 4.9375 C-15.59113281 4.35677734 -14.43226562 3.77605469 -13.23828125 3.17773438 C-12.12324219 2.63310547 -11.00820312 2.08847656 -9.859375 1.52734375 C-8.83295898 1.01937256 -7.80654297 0.51140137 -6.74902344 -0.01196289 C-3.83358404 -1.0598122 -2.78240394 -1.26387544 0 0 Z " fill="#F4BD47" transform="translate(130,48)"/>
<path d="M0 0 C2.140625 1.13671875 2.140625 1.13671875 4 3 C4.64453125 5.8828125 4.64453125 5.8828125 4.8125 9.125 C4.88082031 10.20007813 4.94914063 11.27515625 5.01953125 12.3828125 C5 15 5 15 4 16 C1.83519203 16.0989294 -0.33293785 16.129711 -2.5 16.125 C-3.6859375 16.12757813 -4.871875 16.13015625 -6.09375 16.1328125 C-9 16 -9 16 -10 15 C-10.1875 12.5625 -10.1875 12.5625 -10 10 C-9.34 9.34 -8.68 8.68 -8 8 C-8.33 7.67 -8.66 7.34 -9 7 C-9.25 4.5625 -9.25 4.5625 -9 2 C-5.51131349 -0.32579101 -4.10281481 -0.41865457 0 0 Z M-5 2 C-5 3.65 -5 5.3 -5 7 C-4.01 7 -3.02 7 -2 7 C-2 5.35 -2 3.7 -2 2 C-2.99 2 -3.98 2 -5 2 Z M-3 9 C-3.99 10.485 -3.99 10.485 -5 12 C-4.01 12.33 -3.02 12.66 -2 13 C-2.33 11.68 -2.66 10.36 -3 9 Z " fill="#C19444" transform="translate(169,113)"/>
<path d="M0 0 C2 2 2 2 2.1953125 4.3828125 C2.17210937 5.28773437 2.14890625 6.19265625 2.125 7.125 C2.10695312 8.03507812 2.08890625 8.94515625 2.0703125 9.8828125 C2.04710937 10.58148438 2.02390625 11.28015625 2 12 C2.66 12 3.32 12 4 12 C3.67 12.99 3.34 13.98 3 15 C-1.62 15 -6.24 15 -11 15 C-11.33 13.35 -11.66 11.7 -12 10 C-10.5625 8.1875 -10.5625 8.1875 -9 7 C-9.66 6.67 -10.32 6.34 -11 6 C-11 4.35 -11 2.7 -11 1 C-7.23056711 -1.56321436 -4.3179896 -0.95955325 0 0 Z M-7 1 C-7 2.65 -7 4.3 -7 6 C-5.68 5.67 -4.36 5.34 -3 5 C-3.33 3.68 -3.66 2.36 -4 1 C-4.99 1 -5.98 1 -7 1 Z M-5 8 C-5.33 9.32 -5.66 10.64 -6 12 C-5.01 11.67 -4.02 11.34 -3 11 C-3 10.01 -3 9.02 -3 8 C-3.66 8 -4.32 8 -5 8 Z " fill="#98682A" transform="translate(138,114)"/>
<path d="M0 0 C2.11851795 1.81461413 4.00106157 3.75978891 5.90625 5.796875 C8.55545642 8.5844728 11.41795686 11.05522202 14.3359375 13.5546875 C15.60166464 14.65402798 16.8145434 15.8145434 18 17 C18 17.99 18 18.98 18 20 C14.53172161 18.94737076 12.04152989 17.35706234 9.2578125 15.109375 C8.24654297 14.29339844 8.24654297 14.29339844 7.21484375 13.4609375 C5.81857102 12.31782076 4.43307983 11.16141007 3.05859375 9.9921875 C-0.57695082 6.9107737 -0.57695082 6.9107737 -5.06738281 6.08789062 C-7.22845122 6.65159413 -7.22845122 6.65159413 -10 8 C-10.33 5.69 -10.66 3.38 -11 1 C-6.89489323 -1.05255339 -4.37027848 -1.54245123 0 0 Z " fill="#FCDE9B" transform="translate(81,47)"/>
<path d="M0 0 C1 1 1 1 1.09765625 3.50390625 C1.08605469 4.51324219 1.07445312 5.52257812 1.0625 6.5625 C1.05347656 7.57441406 1.04445313 8.58632812 1.03515625 9.62890625 C1.02355469 10.41136719 1.01195312 11.19382812 1 12 C1.66 12 2.32 12 3 12 C2.67 12.99 2.34 13.98 2 15 C-0.14576637 15.02685938 -2.29162645 15.04633088 -4.4375 15.0625 C-5.63246094 15.07410156 -6.82742187 15.08570313 -8.05859375 15.09765625 C-11 15 -11 15 -12 14 C-12.1875 11.5625 -12.1875 11.5625 -12 9 C-11.34 8.34 -10.68 7.68 -10 7 C-10.66 6.34 -11.32 5.68 -12 5 C-11.8125 3 -11.8125 3 -11 1 C-6.80117625 -1.79921583 -4.87872887 -0.86558093 0 0 Z M-7 1 C-7 2.65 -7 4.3 -7 6 C-6.01 5.67 -5.02 5.34 -4 5 C-4.33 3.68 -4.66 2.36 -5 1 C-5.66 1 -6.32 1 -7 1 Z M-6 8 C-6.33 9.32 -6.66 10.64 -7 12 C-6.01 12 -5.02 12 -4 12 C-4 10.68 -4 9.36 -4 8 C-4.66 8 -5.32 8 -6 8 Z " fill="#E7C46C" transform="translate(60,114)"/>
<path d="M0 0 C2.50800307 1.73662433 4.76868208 3.65327633 7.04711914 5.68188477 C7.93915039 6.4643457 8.83118164 7.24680664 9.75024414 8.05297852 C11.79711914 10.24438477 11.79711914 10.24438477 11.79711914 13.24438477 C7.98696816 11.50864932 5.14129172 9.11070397 1.99243164 6.38891602 C-1.18775724 4.73091718 -2.74585379 5.31659454 -6.20288086 6.24438477 C-9.46471262 7.35002332 -12.67801064 8.56568587 -15.89038086 9.80688477 C-17.58005641 10.45852568 -19.27140101 11.10585981 -20.96459961 11.74829102 C-21.70669678 12.03518799 -22.44879395 12.32208496 -23.21337891 12.61767578 C-25.20288086 13.24438477 -25.20288086 13.24438477 -28.20288086 13.24438477 C-28.04199219 11.40991211 -28.04199219 11.40991211 -27.20288086 9.24438477 C-24.85791016 7.84057617 -24.85791016 7.84057617 -21.77709961 6.59594727 C-20.67043945 6.14864258 -19.5637793 5.70133789 -18.42358398 5.24047852 C-17.25762695 4.78801758 -16.09166992 4.33555664 -14.89038086 3.86938477 C-13.73602539 3.3937207 -12.58166992 2.91805664 -11.39233398 2.42797852 C-9.72654297 1.76862305 -9.72654297 1.76862305 -8.02709961 1.09594727 C-7.00704834 0.6919873 -5.98699707 0.28802734 -4.93603516 -0.12817383 C-2.20288086 -0.75561523 -2.20288086 -0.75561523 0 0 Z " fill="#F9C34E" transform="translate(129.202880859375,64.755615234375)"/>
<path d="M0 0 C2.61602461 1.89030726 4.78081381 4.10245118 7.03125 6.41210938 C7.92328125 7.3221875 8.8153125 8.23226562 9.734375 9.16992188 C10.40984375 9.86859375 11.0853125 10.56726563 11.78125 11.28710938 C11.45125 12.27710937 11.12125 13.26710938 10.78125 14.28710938 C10.05679688 13.62582031 9.33234375 12.96453125 8.5859375 12.28320312 C7.13574219 11.01669922 7.13574219 11.01669922 5.65625 9.72460938 C4.70492187 8.87769531 3.75359375 8.03078125 2.7734375 7.15820312 C-0.01593618 5.05289807 -0.01593618 5.05289807 -2.9453125 5.25585938 C-7.5606461 6.70985469 -12.00458134 8.48739493 -16.46875 10.34960938 C-18.26436499 11.09354335 -20.06118384 11.83458038 -21.859375 12.57226562 C-22.64860352 12.90105713 -23.43783203 13.22984863 -24.25097656 13.56860352 C-26.21875 14.28710938 -26.21875 14.28710938 -28.21875 14.28710938 C-28.21875 12.96710938 -28.21875 11.64710937 -28.21875 10.28710938 C-24.59780706 8.66384933 -20.96844827 7.06136827 -17.33007812 5.47753906 C-16.09387209 4.93596926 -14.86010338 4.38879991 -13.62890625 3.8359375 C-11.85808753 3.04192523 -10.07756053 2.26967727 -8.296875 1.49804688 C-7.22856445 1.0267334 -6.16025391 0.55541992 -5.05957031 0.06982422 C-2.21875 -0.71289062 -2.21875 -0.71289062 0 0 Z " fill="#A36F27" transform="translate(129.21875,56.712890625)"/>
<path d="M0 0 C1.87524414 1.55053711 1.87524414 1.55053711 3.78515625 3.52734375 C4.48060547 4.23697266 5.17605469 4.94660156 5.89257812 5.67773438 C6.60865234 6.42345703 7.32472656 7.16917969 8.0625 7.9375 C9.48868019 9.40709122 10.91697991 10.87462926 12.34765625 12.33984375 C12.97679932 12.99331787 13.60594238 13.64679199 14.25415039 14.32006836 C16.09702663 16.19267322 16.09702663 16.19267322 19 18 C19 19.32 19 20.64 19 22 C14.81647159 20.23245925 11.51070247 17.379141 8 14.5625 C6.19060455 13.1221758 4.3806644 11.68271574 2.56542969 10.24975586 C1.27998555 9.22352558 0.01911337 8.16658933 -1.234375 7.1015625 C-1.81703125 6.73804688 -2.3996875 6.37453125 -3 6 C-6.22174544 6.71223847 -6.22174544 6.71223847 -9 8 C-9 5.69 -9 3.38 -9 1 C-5.51942151 -0.64360651 -3.63836933 -1.37283156 0 0 Z " fill="#FCDF9E" transform="translate(80,33)"/>
<path d="M0 0 C2.32492646 1.66149313 4.34089341 3.27725844 6.4375 5.1875 C7.54021243 6.16032875 8.64307627 7.13298589 9.74609375 8.10546875 C10.28089355 8.58806152 10.81569336 9.0706543 11.36669922 9.56787109 C13.00300851 11.00263796 14.69687395 12.33462366 16.41015625 13.67578125 C17.26480469 14.44277344 18.11945313 15.20976563 19 16 C19 16.99 19 17.98 19 19 C15.66290543 17.92875369 13.05840991 16.41691188 10.2578125 14.36328125 C9.58363281 13.86892578 8.90945312 13.37457031 8.21484375 12.86523438 C6.82099256 11.82961597 5.4354932 10.7826616 4.05859375 9.72460938 C-0.52021516 6.38844139 -0.52021516 6.38844139 -6.0078125 6.16796875 C-6.99523437 6.44253906 -7.98265625 6.71710938 -9 7 C-9 5.35 -9 3.7 -9 2 C-5.82293724 0.11729614 -3.67892926 -0.51588385 0 0 Z " fill="#FBDD97" transform="translate(80,61)"/>
<path d="M0 0 C1.46179688 1.06927734 1.46179688 1.06927734 2.953125 2.16015625 C3.93796875 2.87042969 4.9228125 3.58070312 5.9375 4.3125 C7.05898437 5.25802734 7.05898437 5.25802734 8.203125 6.22265625 C8.203125 6.88265625 8.203125 7.54265625 8.203125 8.22265625 C4.20762346 7.4607646 1.70784183 5.58081602 -1.50390625 3.18359375 C-7.41969864 0.70440307 -14.81873937 4.36681347 -20.609375 6.28515625 C-22.3025575 6.84106966 -23.99653202 7.39457839 -25.69140625 7.9453125 C-26.80286011 8.31281616 -26.80286011 8.31281616 -27.93676758 8.68774414 C-29.796875 9.22265625 -29.796875 9.22265625 -31.796875 9.22265625 C-31.62231445 7.35864258 -31.62231445 7.35864258 -30.796875 5.22265625 C-28.54370117 4.01831055 -28.54370117 4.01831055 -25.58984375 3.046875 C-24.52830078 2.69431641 -23.46675781 2.34175781 -22.37304688 1.97851562 C-21.25478516 1.62595703 -20.13652344 1.27339844 -18.984375 0.91015625 C-17.87771484 0.53826172 -16.77105469 0.16636719 -15.63085938 -0.21679688 C-5.51336556 -3.50360521 -5.51336556 -3.50360521 0 0 Z " fill="#AB7629" transform="translate(132.796875,76.77734375)"/>
<path d="M0 0 C-0.33 1.65 -0.66 3.3 -1 5 C-3.475 4.01 -3.475 4.01 -6 3 C-6 6.3 -6 9.6 -6 13 C-5.34 13 -4.68 13 -4 13 C-4 13.66 -4 14.32 -4 15 C-6.97 15 -9.94 15 -13 15 C-13 10.05 -13 5.1 -13 0 C-3.89285714 -1.20535714 -3.89285714 -1.20535714 0 0 Z " fill="#AB7C36" transform="translate(157,114)"/>
<path d="M0 0 C2 0.25 2 0.25 4 1 C4.33 1.99 4.66 2.98 5 4 C4.67 4.66 4.34 5.32 4 6 C2.35 5.67 0.7 5.34 -1 5 C-1.33 7.97 -1.66 10.94 -2 14 C-1.34 14 -0.68 14 0 14 C0 14.66 0 15.32 0 16 C-2.97 16 -5.94 16 -9 16 C-9 15.34 -9 14.68 -9 14 C-8.34 14 -7.68 14 -7 14 C-7.14084796 12.20793453 -7.28783701 10.41635083 -7.4375 8.625 C-7.51871094 7.62726563 -7.59992188 6.62953125 -7.68359375 5.6015625 C-7.84965626 3.02072387 -7.84965626 3.02072387 -9 1 C-7.700625 1.020625 -6.40125 1.04125 -5.0625 1.0625 C-3.70834367 1.08399454 -2.35243917 1.07148199 -1 1 C-0.67 0.67 -0.34 0.34 0 0 Z " fill="#F2E09A" transform="translate(74,113)"/>
<path d="M0 0 C0.95132813 0.63164063 1.90265625 1.26328125 2.8828125 1.9140625 C3.84960938 2.54054688 4.81640625 3.16703125 5.8125 3.8125 C6.53695312 4.38226563 7.26140625 4.95203125 8.0078125 5.5390625 C8.0078125 6.1990625 8.0078125 6.8590625 8.0078125 7.5390625 C4.81694672 6.55141357 2.07004549 5.5764023 -0.8046875 3.8515625 C-8.38923077 0.72851527 -17.10357229 4.54140616 -24.63671875 6.69921875 C-27.9921875 7.5390625 -27.9921875 7.5390625 -31.9921875 7.5390625 C-31.6621875 6.5490625 -31.3321875 5.5590625 -30.9921875 4.5390625 C-28.9543457 3.64770508 -28.9543457 3.64770508 -26.29296875 2.93359375 C-25.33068359 2.67255859 -24.36839844 2.41152344 -23.37695312 2.14257812 C-21.85618164 1.75102539 -21.85618164 1.75102539 -20.3046875 1.3515625 C-18.81291992 0.94260742 -18.81291992 0.94260742 -17.29101562 0.52539062 C-5.39303801 -2.63315433 -5.39303801 -2.63315433 0 0 Z " fill="#CF9833" transform="translate(132.9921875,85.4609375)"/>
<path d="M0 0 C1.53814067 0.98493815 3.07322916 1.97465658 4.60546875 2.96875 C5.39373047 3.46761719 6.18199219 3.96648437 6.99414062 4.48046875 C7.73857422 4.96128906 8.48300781 5.44210938 9.25 5.9375 C9.9303833 6.37513672 10.6107666 6.81277344 11.31176758 7.26367188 C11.80056396 7.66134766 12.28936035 8.05902344 12.79296875 8.46875 C12.79296875 9.12875 12.79296875 9.78875 12.79296875 10.46875 C7.38989683 9.81790195 3.15159097 7.01552549 -1.41601562 4.26367188 C-6.26020236 1.51614853 -9.64698498 1.07997873 -15.20703125 1.46875 C-15.53703125 0.14875 -15.86703125 -1.17125 -16.20703125 -2.53125 C-9.05531837 -5.05538396 -6.19916724 -3.81581798 0 0 Z " fill="#FBDD97" transform="translate(86.20703125,81.53125)"/>
<path d="M0 0 C2.31 0 4.62 0 7 0 C7.33 4.95 7.66 9.9 8 15 C5.36 15 2.72 15 0 15 C0 10.05 0 5.1 0 0 Z " fill="#AA7934" transform="translate(116,114)"/>
<path d="M0 0 C4.55555556 0.55555556 4.55555556 0.55555556 6 2 C6.07244053 4.01964199 6.08377188 6.04167124 6.0625 8.0625 C6.05347656 9.16722656 6.04445313 10.27195312 6.03515625 11.41015625 C6.02355469 12.26480469 6.01195312 13.11945313 6 14 C6.66 14 7.32 14 8 14 C8 14.66 8 15.32 8 16 C5.03 16 2.06 16 -1 16 C-0.67 15.34 -0.34 14.68 0 14 C0.12082534 12.33654418 0.1753794 10.66779409 0.1875 9 C0.20167969 8.113125 0.21585938 7.22625 0.23046875 6.3125 C0.22713126 3.80480016 0.22713126 3.80480016 -2 2 C-1.34 1.34 -0.68 0.68 0 0 Z " fill="#CA9A44" transform="translate(38,113)"/>
<path d="M0 0 C0.66 0.33 1.32 0.66 2 1 C1.25292569 3.67701629 0.80393243 4.93490846 -1 7 C-10.26356589 12 -10.26356589 12 -15 12 C-15 10.35 -15 8.7 -15 7 C-13.43880578 6.20576139 -11.87598036 5.41472877 -10.3125 4.625 C-9.00732422 3.96371094 -9.00732422 3.96371094 -7.67578125 3.2890625 C-5.13770767 2.06634092 -2.67044647 0.90076388 0 0 Z " fill="#865321" transform="translate(48,44)"/>
<path d="M0 0 C2.31 0 4.62 0 7 0 C7.33 4.95 7.66 9.9 8 15 C5.36 15 2.72 15 0 15 C0 14.34 0 13.68 0 13 C0.66 13 1.32 13 2 13 C1.85915204 11.20793453 1.71216299 9.41635083 1.5625 7.625 C1.48128906 6.62726563 1.40007813 5.62953125 1.31640625 4.6015625 C1.15034374 2.02072387 1.15034374 2.02072387 0 0 Z " fill="#AF7A2F" transform="translate(18,114)"/>
<path d="M0 0 C-0.33 1.98 -0.66 3.96 -1 6 C-3.08108685 6.67364661 -5.1649671 7.33866798 -7.25 8 C-8.41015625 8.37125 -9.5703125 8.7425 -10.765625 9.125 C-14 10 -14 10 -18 10 C-18 8.68 -18 7.36 -18 6 C-15.37646482 4.99600476 -12.75132205 3.99665555 -10.125 3 C-9.37863281 2.71382813 -8.63226563 2.42765625 -7.86328125 2.1328125 C-2.2265625 0 -2.2265625 0 0 0 Z " fill="#946325" transform="translate(51,70)"/>
<path d="M0 0 C0.66 0.33 1.32 0.66 2 1 C1.6875 3.75 1.6875 3.75 0 7 C-4.41436139 9.29769599 -8.99974347 11 -14 11 C-14 9.35 -14 7.7 -14 6 C-11.71220962 4.96959833 -9.42048864 3.95047982 -7.125 2.9375 C-6.47402344 2.64294922 -5.82304688 2.34839844 -5.15234375 2.04492188 C-3.45989459 1.30338487 -1.73131425 0.64560999 0 0 Z " fill="#835121" transform="translate(47,57)"/>
<path d="M0 0 C3.43178121 1.42790897 5.55928341 4.0868027 7.984375 6.8046875 C8.49097656 7.34738281 8.99757812 7.89007813 9.51953125 8.44921875 C13.234375 12.54455863 13.234375 12.54455863 13.234375 15.9296875 C9.7821366 14.47530768 7.8798907 12.59811471 5.421875 9.8046875 C2.71272748 6.90096134 2.71272748 6.90096134 -0.83984375 5.40625 C-2.95586441 5.38308618 -2.95586441 5.38308618 -5.765625 5.9296875 C-3.58575923 -0.14279572 -3.58575923 -0.14279572 0 0 Z " fill="#A26F27" transform="translate(127.765625,47.0703125)"/>
<path d="M0 0 C0 1.32 0 2.64 0 4 C-2.7899439 5.17094005 -5.58178597 6.33690927 -8.375 7.5 C-9.1690625 7.83386719 -9.963125 8.16773437 -10.78125 8.51171875 C-11.92207031 8.98544922 -11.92207031 8.98544922 -13.0859375 9.46875 C-13.7876709 9.76201172 -14.4894043 10.05527344 -15.21240234 10.35742188 C-17 11 -17 11 -19 11 C-19 9.68 -19 8.36 -19 7 C-16.39869373 5.8265684 -13.79431492 4.66107492 -11.1875 3.5 C-10.44951172 3.16613281 -9.71152344 2.83226562 -8.95117188 2.48828125 C-8.23896484 2.17246094 -7.52675781 1.85664062 -6.79296875 1.53125 C-6.1383667 1.23798828 -5.48376465 0.94472656 -4.80932617 0.64257812 C-3 0 -3 0 0 0 Z " fill="#F9C450" transform="translate(120,60)"/>
<path d="M0 0 C0.53625 0.391875 1.0725 0.78375 1.625 1.1875 C1.625 3.4975 1.625 5.8075 1.625 8.1875 C0.26375 8.1565625 0.26375 8.1565625 -1.125 8.125 C-3.80172588 8.1764755 -5.84488052 8.4090017 -8.375 9.1875 C-8.375 6.8775 -8.375 4.5675 -8.375 2.1875 C-2.95961538 -1.0125 -2.95961538 -1.0125 0 0 Z " fill="#F9CA61" transform="translate(79.375,16.8125)"/>
<path d="M0 0 C0 1.32 0 2.64 0 4 C-2.4363189 4.67126129 -4.87388883 5.33716354 -7.3125 6 C-8.00279297 6.19078125 -8.69308594 6.3815625 -9.40429688 6.578125 C-12.35787949 7.37716184 -14.92559219 8 -18 8 C-18 6.68 -18 5.36 -18 4 C-15.5636811 3.32873871 -13.12611117 2.66283646 -10.6875 2 C-9.65206055 1.71382813 -9.65206055 1.71382813 -8.59570312 1.421875 C-5.64212051 0.62283816 -3.07440781 0 0 0 Z " fill="#986525" transform="translate(51,85)"/>
<path d="M0 0 C0 0.99 0 1.98 0 3 C-2.95670218 4.00486895 -5.91561577 5.00306024 -8.875 6 C-9.71675781 6.28617187 -10.55851562 6.57234375 -11.42578125 6.8671875 C-12.23144531 7.13789062 -13.03710938 7.40859375 -13.8671875 7.6875 C-14.98262939 8.06455078 -14.98262939 8.06455078 -16.12060547 8.44921875 C-18 9 -18 9 -20 9 C-19.95703125 7.171875 -19.95703125 7.171875 -19 5 C-16.51530091 3.8610547 -14.28325435 3.02217014 -11.6875 2.25 C-11.01009766 2.02957031 -10.33269531 1.80914062 -9.63476562 1.58203125 C-6.23923912 0.5132536 -3.59199487 0 0 0 Z " fill="#F2B83C" transform="translate(121,77)"/>
<path d="M0 0 C0 1.98 0 3.96 0 6 C-0.99 6 -1.98 6 -3 6 C-5.34210921 6.63514826 -7.67684969 7.2986716 -10 8 C-10.33 5.69 -10.66 3.38 -11 1 C-6.92630576 -1.03684712 -4.41062136 -1.0257259 0 0 Z " fill="#FAD071" transform="translate(81,47)"/>
<path d="M0 0 C-0.33 1.65 -0.66 3.3 -1 5 C-0.34 5.33 0.32 5.66 1 6 C-0.43429001 6.67354499 -1.87257057 7.33859701 -3.3125 8 C-4.51326172 8.556875 -4.51326172 8.556875 -5.73828125 9.125 C-8 10 -8 10 -11 10 C-11 8.35 -11 6.7 -11 5 C-9.54462432 4.16151196 -8.08559627 3.32936066 -6.625 2.5 C-5.81289063 2.0359375 -5.00078125 1.571875 -4.1640625 1.09375 C-2 0 -2 0 0 0 Z " fill="#74431C" transform="translate(44,33)"/>
<path d="M0 0 C3.64060348 1.57362534 6.29840005 3.80954039 9.25 6.4375 C10.14203125 7.21996094 11.0340625 8.00242187 11.953125 8.80859375 C14 11 14 11 14 14 C11.01621396 12.62440154 8.61645596 10.99583679 6.0625 8.9375 C3.07757163 6.64440549 0.86292707 5.24143294 -3 5 C-2.01 3.35 -1.02 1.7 0 0 Z " fill="#9B6826" transform="translate(127,64)"/>
<path d="M0 0 C0 2.31 0 4.62 0 7 C-2.64 7.66 -5.28 8.32 -8 9 C-8 6.69 -8 4.38 -8 2 C-5.09399739 0.74335022 -3.20395416 0 0 0 Z " fill="#F9CC64" transform="translate(79,32)"/>
<path d="M0 0 C-0.0625 2.8125 -0.0625 2.8125 -1 6 C-4.375 7.9375 -4.375 7.9375 -8 9 C-8.99 8.67 -9.98 8.34 -11 8 C-8.67510549 2.37130802 -8.67510549 2.37130802 -5.5 0.625 C-3 0 -3 0 0 0 Z " fill="#B47F2B" transform="translate(58,41)"/>
<path d="M0 0 C-1.04162718 2.98683456 -1.70207827 3.8550651 -4.6015625 5.265625 C-5.59929687 5.59046875 -6.59703125 5.9153125 -7.625 6.25 C-8.62789063 6.58515625 -9.63078125 6.9203125 -10.6640625 7.265625 C-11.82035156 7.62914063 -11.82035156 7.62914063 -13 8 C-13 6.35 -13 4.7 -13 3 C-11.40084119 2.30093058 -9.79544955 1.61610532 -8.1875 0.9375 C-7.29417969 0.55464844 -6.40085937 0.17179687 -5.48046875 -0.22265625 C-3 -1 -3 -1 0 0 Z " fill="#D09833" transform="translate(127,66)"/>
<path d="M0 0 C4.3124594 1.59720719 6.42143673 4.31633819 9 8 C8.63671875 10.1953125 8.63671875 10.1953125 8 12 C6.65213008 10.95600254 5.32207271 9.88897934 4 8.8125 C3.2575 8.22082031 2.515 7.62914062 1.75 7.01953125 C0 5 0 5 -0.25 2.26171875 C-0.1675 1.51535156 -0.085 0.76898437 0 0 Z " fill="#FBD789" transform="translate(90,31)"/>
<path d="M0 0 C1.625 1.3125 1.625 1.3125 2.625 4.3125 C-0.12578884 5.22942961 -1.73448913 5.42136083 -4.5625 5.375 C-6.4496875 5.3440625 -6.4496875 5.3440625 -8.375 5.3125 C-8.705 3.9925 -9.035 2.6725 -9.375 1.3125 C-3.0406051 -0.88017516 -3.0406051 -0.88017516 0 0 Z " fill="#FAD072" transform="translate(79.375,77.6875)"/>
<path d="M0 0 C0.66 0.33 1.32 0.66 2 1 C1.7421875 2.859375 1.7421875 2.859375 1 5 C-0.7421875 6.265625 -0.7421875 6.265625 -2.875 7.25 C-3.57367188 7.58515625 -4.27234375 7.9203125 -4.9921875 8.265625 C-7 9 -7 9 -10 9 C-8.60064115 5.59635112 -7.12995268 4.09193812 -4 2.1875 C-3.29875 1.74792969 -2.5975 1.30835938 -1.875 0.85546875 C-1.25625 0.57316406 -0.6375 0.29085937 0 0 Z " fill="#CF9832" transform="translate(122,49)"/>
<path d="M0 0 C-0.25 2.375 -0.25 2.375 -1 5 C-3.56310828 6.7941758 -4.83119306 7 -8 7 C-8 5.35 -8 3.7 -8 2 C-4.91190305 0.23537317 -3.76687864 0 0 0 Z " fill="#F9CC63" transform="translate(79,61)"/>
<path d="M0 0 C4.00748653 0.58487641 6.85736768 1.84394575 10.3125 3.9375 C11.19550781 4.46214844 12.07851562 4.98679687 12.98828125 5.52734375 C13.65214844 6.01332031 14.31601563 6.49929687 15 7 C15 7.66 15 8.32 15 9 C9.80355921 7.40109514 4.93387858 5.25861997 0 3 C0 2.01 0 1.02 0 0 Z " fill="#8E5C24" transform="translate(126,84)"/>
<path d="M0 0 C3.44738372 1.53217054 6.25309882 3.40570444 9 6 C9 7.32 9 8.64 9 10 C5.55261628 8.46782946 2.74690118 6.59429556 0 4 C0 2.68 0 1.36 0 0 Z " fill="#FAD581" transform="translate(90,45)"/>
<path d="M0 0 C1.17539996 0.92652701 2.34010577 1.86663387 3.5 2.8125 C4.1496875 3.33457031 4.799375 3.85664062 5.46875 4.39453125 C7 6 7 6 7 9 C4.0280615 7.87548273 1.66559313 6.77706209 -1 5 C-0.67 3.35 -0.34 1.7 0 0 Z " fill="#FAD687" transform="translate(92,58)"/>
<path d="M0 0 C-0.5 1.9375 -0.5 1.9375 -2 4 C-4.69658452 4.68790422 -7.2017019 4.81946464 -10 5 C-10 3.68 -10 2.36 -10 1 C-8.71073008 0.63720544 -7.41846728 0.28503302 -6.125 -0.0625 C-5.40570313 -0.25972656 -4.68640625 -0.45695312 -3.9453125 -0.66015625 C-2 -1 -2 -1 0 0 Z " fill="#BE882D" transform="translate(61,83)"/>
<path d="M0 0 C-0.66 0.66 -1.32 1.32 -2 2 C-2.99 2 -3.98 2 -5 2 C-4.67 3.32 -4.34 4.64 -4 6 C-5.65 6.33 -7.3 6.66 -9 7 C-9.1875 4.625 -9.1875 4.625 -9 2 C-5.5647952 -0.29013653 -4.014669 -0.17842973 0 0 Z " fill="#BB8D41" transform="translate(169,113)"/>
<path d="M0 0 C1.12588014 0.95729916 2.2506715 1.91587895 3.375 2.875 C4.00148437 3.40867188 4.62796875 3.94234375 5.2734375 4.4921875 C6.55836651 5.61432007 7.79371975 6.79371975 9 8 C8.67 8.99 8.34 9.98 8 11 C5.03 8.69 2.06 6.38 -1 4 C-0.67 2.68 -0.34 1.36 0 0 Z " fill="#79471F" transform="translate(132,60)"/>
<path d="M0 0 C0 1.98 0 3.96 0 6 C-1.65 6.66 -3.3 7.32 -5 8 C-5.33 5.69 -5.66 3.38 -6 1 C-3 0 -3 0 0 0 Z " fill="#F9C551" transform="translate(76,47)"/>
<path d="M0 0 C2.5 1.625 2.5 1.625 5 4 C5.3125 7.25 5.3125 7.25 5 10 C1.125 8.125 1.125 8.125 0 7 C-0.04092937 4.66702567 -0.04241723 2.33294775 0 0 Z " fill="#FAD785" transform="translate(79,33)"/>
<path d="M0 0 C2.33333333 2.33333333 4.66666667 4.66666667 7 7 C7 7.99 7 8.98 7 10 C2.7257442 8.4169423 0.73468206 5.49431596 -2 2 C-1.34 1.34 -0.68 0.68 0 0 Z " fill="#7F4D20" transform="translate(134,53)"/>
<path d="M0 0 C0 1.32 0 2.64 0 4 C-2.90600261 5.25664978 -4.79604584 6 -8 6 C-7.75 4.125 -7.75 4.125 -7 2 C-4.41847698 0.27898465 -3.15081975 0 0 0 Z " fill="#D69E33" transform="translate(120,60)"/>
<path d="M0 0 C0 2.31 0 4.62 0 7 C-3.41158256 5.86280581 -4.11854601 4.95657056 -6 2 C-6 1.34 -6 0.68 -6 0 C-2.25 -1.125 -2.25 -1.125 0 0 Z " fill="#C08F3E" transform="translate(15,107)"/>
<path d="M0 0 C1.33855056 0.78281305 2.67073644 1.57651877 4 2.375 C5.11375 3.03628906 5.11375 3.03628906 6.25 3.7109375 C6.8275 4.13632813 7.405 4.56171875 8 5 C8 5.66 8 6.32 8 7 C4.04179141 6.43454163 1.3340947 5.19097652 -2 3 C-1.34 2.01 -0.68 1.02 0 0 Z " fill="#F9D483" transform="translate(91,85)"/>
<path d="M0 0 C1.50539661 0.94983358 3.00420347 1.91011891 4.5 2.875 C5.75296875 3.67550781 5.75296875 3.67550781 7.03125 4.4921875 C7.6809375 4.98976563 8.330625 5.48734375 9 6 C9 6.66 9 7.32 9 8 C5.00544473 7.38545304 2.25533664 5.29353263 -1 3 C-0.67 2.01 -0.34 1.02 0 0 Z " fill="#825020" transform="translate(132,77)"/>
<path d="M0 0 C0 1.65 0 3.3 0 5 C-2.31 5.33 -4.62 5.66 -7 6 C-7 4.68 -7 3.36 -7 2 C-2.25 0 -2.25 0 0 0 Z " fill="#75431C" transform="translate(40,74)"/>
<path d="M0 0 C-0.33 1.32 -0.66 2.64 -1 4 C-3.31 4.33 -5.62 4.66 -8 5 C-8 3.68 -8 2.36 -8 1 C-5.10765685 0.17361624 -3.11257569 0 0 0 Z " fill="#78461E" transform="translate(41,88)"/>
<path d="M0 0 C0 0.99 0 1.98 0 3 C-3.37097383 4.49821059 -5.20442119 5 -9 5 C-9 4.34 -9 3.68 -9 3 C-8.34 3 -7.68 3 -7 3 C-7 2.34 -7 1.68 -7 1 C-4 0 -4 0 0 0 Z " fill="#D49D33" transform="translate(121,77)"/>
<path d="M0 0 C-0.33 1.65 -0.66 3.3 -1 5 C-0.34 5.33 0.32 5.66 1 6 C-2.465 7.485 -2.465 7.485 -6 9 C-5.71848913 7.68528432 -5.42446661 6.37324233 -5.125 5.0625 C-4.96257813 4.33160156 -4.80015625 3.60070313 -4.6328125 2.84765625 C-3.73508672 0.22651863 -2.68779246 0 0 0 Z " fill="#885523" transform="translate(44,33)"/>
<path d="M0 0 C0.66 0.33 1.32 0.66 2 1 C1.67 2.98 1.34 4.96 1 7 C-0.65 6.67 -2.3 6.34 -4 6 C-3.6875 4.125 -3.6875 4.125 -3 2 C-2.01 1.34 -1.02 0.68 0 0 Z " fill="#E2B759" transform="translate(52,113)"/>
<path d="M0 0 C1.9375 0.3125 1.9375 0.3125 4 1 C4.33 1.99 4.66 2.98 5 4 C4.67 4.66 4.34 5.32 4 6 C1.13275314 5.42655063 0.1385485 5.1385485 -2 3 C-1.34 2.01 -0.68 1.02 0 0 Z " fill="#F6ECAD" transform="translate(74,113)"/>
<path d="M0 0 C1 1 2 2 3 3 C3.8353125 3.7734375 3.8353125 3.7734375 4.6875 4.5625 C6 6 6 6 6 8 C4.02 8 2.04 8 0 8 C0 5.36 0 2.72 0 0 Z " fill="#CB9C46" transform="translate(0,121)"/>
<path d="M0 0 C1.32 0.66 2.64 1.32 4 2 C3.67 3.32 3.34 4.64 3 6 C1.35 5.67 -0.3 5.34 -2 5 C-1.125 1.125 -1.125 1.125 0 0 Z " fill="#AF8138" transform="translate(119,106)"/>
<path d="M0 0 C0.99 0.33 1.98 0.66 3 1 C2.67 2.65 2.34 4.3 2 6 C0.68 6 -0.64 6 -2 6 C-2.33 4.68 -2.66 3.36 -3 2 C-2.01 1.34 -1.02 0.68 0 0 Z " fill="#B17F33" transform="translate(22,106)"/>
<path d="M0 0 C2.46800047 1.15173355 4.04783565 2.04783565 6 4 C6 4.99 6 5.98 6 7 C1.32307692 5.52307692 1.32307692 5.52307692 -0.3125 2.875 C-0.539375 2.25625 -0.76625 1.6375 -1 1 C-0.67 0.67 -0.34 0.34 0 0 Z " fill="#FAD37B" transform="translate(93,73)"/>
<path d="M0 0 C0.66 0.33 1.32 0.66 2 1 C1.25 3.9375 1.25 3.9375 0 7 C-2.125 7.875 -2.125 7.875 -4 8 C-4.33 6.02 -4.66 4.04 -5 2 C-2.625 0.9375 -2.625 0.9375 0 0 Z " fill="#966425" transform="translate(47,57)"/>
<path d="M0 0 C-1 2 -2 4 -3 6 C-3.99 6 -4.98 6 -6 6 C-6 4.35 -6 2.7 -6 1 C-4 0 -4 0 0 0 Z " fill="#71401C" transform="translate(39,62)"/>
<path d="M0 0 C1.98 0.99 1.98 0.99 4 2 C4 4.31 4 6.62 4 9 C2.68 8.34 1.36 7.68 0 7 C0 4.69 0 2.38 0 0 Z " fill="#F9D177" transform="translate(77,16)"/>
<path d="M0 0 C-0.33 0.99 -0.66 1.98 -1 3 C-3.64 3.33 -6.28 3.66 -9 4 C-8.67 3.01 -8.34 2.02 -8 1 C-5.17884816 -0.07009208 -3.09455459 0 0 0 Z " fill="#F8C24C" transform="translate(110,89)"/>
<path d="M0 0 C2.91517292 1.07401108 4.77810176 1.77810176 7 4 C7 4.99 7 5.98 7 7 C4.50638429 5.79618552 2.31856917 4.54571278 0 3 C0 2.01 0 1.02 0 0 Z " fill="#7C4B20" transform="translate(134,71)"/>
<path d="M0 0 C-0.33 1.65 -0.66 3.3 -1 5 C-2.32 5 -3.64 5 -5 5 C-5.33 3.68 -5.66 2.36 -6 1 C-3 0 -3 0 0 0 Z " fill="#F9C552" transform="translate(76,78)"/>
<path d="M0 0 C1.5 1.0625 1.5 1.0625 3 3 C3.1875 6.6875 3.1875 6.6875 3 10 C0.9375 8.375 0.9375 8.375 -1 6 C-0.75 2.75 -0.75 2.75 0 0 Z " fill="#FBD88B" transform="translate(81,19)"/>
<path d="M0 0 C0 1.32 0 2.64 0 4 C-1.98 4.33 -3.96 4.66 -6 5 C-5.6875 3.0625 -5.6875 3.0625 -5 1 C-2 0 -2 0 0 0 Z " fill="#ECB239" transform="translate(114,70)"/>
<path d="M0 0 C1.485 0.99 1.485 0.99 3 2 C3.1875 5.125 3.1875 5.125 3 8 C1.68 7.34 0.36 6.68 -1 6 C-0.67 4.02 -0.34 2.04 0 0 Z " fill="#F9D37D" transform="translate(79,61)"/>
<path d="M0 0 C0.66 0.33 1.32 0.66 2 1 C2.59355614 3.64860427 2.74209269 6.29197322 3 9 C1.68 8.34 0.36 7.68 -1 7 C-0.67 4.69 -0.34 2.38 0 0 Z " fill="#FAD88A" transform="translate(81,48)"/>
<path d="M0 0 C0 2.31 0 4.62 0 7 C-0.99 7.33 -1.98 7.66 -3 8 C-3 5.69 -3 3.38 -3 1 C-1 0 -1 0 0 0 Z " fill="#F8C34B" transform="translate(74,18)"/>
<path d="M0 0 C0.99 0.33 1.98 0.66 3 1 C2.25 2.9375 2.25 2.9375 1 5 C-1.125 5.75 -1.125 5.75 -3 6 C-2.625 3.5625 -2.625 3.5625 -2 1 C-1.34 0.67 -0.68 0.34 0 0 Z " fill="#B6812C" transform="translate(124,65)"/>
<path d="M0 0 C0.99 0 1.98 0 3 0 C3 1.98 3 3.96 3 6 C2.01 6.33 1.02 6.66 0 7 C0 4.69 0 2.38 0 0 Z " fill="#F8C34B" transform="translate(71,34)"/>
<path d="M0 0 C0.99 0.33 1.98 0.66 3 1 C3 1.99 3 2.98 3 4 C1.35 4.33 -0.3 4.66 -2 5 C-2 3.68 -2 2.36 -2 1 C-1.34 0.67 -0.68 0.34 0 0 Z " fill="#F0B63C" transform="translate(110,63)"/>
<path d="M0 0 C0.66 0.33 1.32 0.66 2 1 C0.6875 3.5 0.6875 3.5 -1 6 C-1.99 6 -2.98 6 -4 6 C-4 4.68 -4 3.36 -4 2 C-2.125 0.9375 -2.125 0.9375 0 0 Z " fill="#BB862D" transform="translate(124,57)"/>
<path d="M0 0 C0.66 0.33 1.32 0.66 2 1 C1.67 1.99 1.34 2.98 1 4 C-0.65 4.33 -2.3 4.66 -4 5 C-3.6875 3.0625 -3.6875 3.0625 -3 1 C-2.01 0.67 -1.02 0.34 0 0 Z " fill="#F9C654" transform="translate(105,81)"/>
<path d="M0 0 C1.32 0.99 2.64 1.98 4 3 C3.67 4.32 3.34 5.64 3 7 C1.68 5.68 0.36 4.36 -1 3 C-0.67 2.01 -0.34 1.02 0 0 Z " fill="#8A5722" transform="translate(132,60)"/>
<path d="M0 0 C0.66 0 1.32 0 2 0 C2 1.98 2 3.96 2 6 C1.01 6 0.02 6 -1 6 C-1.042721 4.33388095 -1.04063832 2.66617115 -1 1 C-0.67 0.67 -0.34 0.34 0 0 Z " fill="#F9C34B" transform="translate(72,62)"/>
<path d="M0 0 C1.32 0.66 2.64 1.32 4 2 C4 2.99 4 3.98 4 5 C1.525 4.01 1.525 4.01 -1 3 C-0.67 2.01 -0.34 1.02 0 0 Z " fill="#F9D176" transform="translate(95,62)"/>
<path d="M0 0 C1.5625 1.25 1.5625 1.25 3 3 C2.6875 5.1875 2.6875 5.1875 2 7 C0.4375 5.75 0.4375 5.75 -1 4 C-0.6875 1.8125 -0.6875 1.8125 0 0 Z " fill="#FAD076" transform="translate(96,36)"/>
</svg>
